<svg version="1.2" xmlns="http://www.w3.org/2000/svg" viewBox="0 0 500 500" width="300" height="300"><defs><linearGradient id="P" gradientUnits="userSpaceOnUse"/><radialGradient id="g1" cx="262.1" cy="454.5" r="228.3" href="#P"><stop stop-color="#312a20"/><stop offset="1" stop-color="#fff"/></radialGradient></defs><style>.a{opacity:.2;mix-blend-mode:multiply;fill:url(#g1)}.b{fill:#101a1a}.c{fill:#232323}</style><path class="a" d="m262.1 472.6c-126.3 0-228.3-8.1-228.3-18.1 0-10 102-18.1 228.3-18.1 126.3 0 228.3 8.1 228.3 18.1 0 10-102 18.1-228.3 18.1z"/><path class="b" d="m310.4 116.1l-6.2 2.4-6.1-16.3 6.3-2.3z"/><path class="b" d="m142.9 355.5l-58.3 21.9-8.2-21.9h7.1l5 13.2 35.3-13.2zm301.9-229.5h-7.2l-34.4-91.8-80.2 30.1c4.4 16.4-4.3 33.8-20.6 39.9-16.2 6.1-34.3-1.3-41.8-16.5l-102.1 38.3h-19.1l125-46.9 1.2 3.2c5.1 13.8 20.6 20.8 34.5 15.6 13.8-5.2 20.8-20.6 15.6-34.5l-1.1-3.1 92.5-34.7zm-394 40.4l-33.4 12.5 33.4 89.2v19.1l-42.1-112.2 42.1-15.8z"/><path class="b" d="m367.6 140l9.8-3.7c0 2.8-0.6 5.4-1.6 7.8l-5.9 2.2z"/><path class="b" d="m415.7 126h-10.8l9.5-3.6z"/><path class="b" d="m411.5 114.9l-29.6 11.1-4.5 1.6-12.7 4.8-4.1-11 46.8-17.5z"/><path class="b" d="m403.4 93.2l-46.8 17.5-2.4-6.3 46.8-17.5z"/><path class="b" d="m397.9 78.5l-46.8 17.6-1.2-3.2 46.8-17.5z"/><path class="b" d="m394.3 69.1l-46.7 17.6-2.4-6.3 46.8-17.6z"/><path fill-rule="evenodd" class="c" d="m286.8 245.5v21.6l-26.1-6.2v2.9h-21.5v-8l-22.3-5.3c-0.9 12-2.3 22.3-4 30.2l19.5 12.6v18.8l-25.2-9.2-6.3 5.3-5.9-5.4-25.5 9.3v-18.8l19.2-12.4c-1.6-7.6-2.8-17.9-3.6-30.4l-22.4 5.3v8h-21.5v-2.9l-26.1 6.2v-21.6l26.1-13.6v-7c0-2.7 1.5-5.9 3.8-8.2 2-2 4.5-3.1 7-3.1 4.5 0 8.4 3.6 10 7.6l21.6-11.3c-0.1-2.2-0.1-5.1-0.1-7.7v-4.3c-0.1-7.3 3.7-18.9 9.5-24.7 2.5-2.5 5.1-3.8 7.9-3.8 10.6 0 17.5 18.7 17.5 28.5 0 2.5 0 8.4 0 12.1l21.6 11.2c0.6-1.6 1.6-3.2 2.9-4.5 2-2 4.5-3.1 7-3.1 2.9 0 5.7 1.4 7.8 4 1.9 2.2 3 4.9 3 7.3v7zm-6.7 13.1v-9l-26.2-13.6v-11.1c0-0.7-0.5-1.9-1.4-3-0.8-1-1.8-1.6-2.6-1.6-1 0-1.9 0.7-2.3 1.2-1.2 1.2-1.8 2.7-1.8 3.4v6.9l-34.2-17.8 0.1-2c0-3 0-11 0-14.1-0.1-8.3-6.1-21.8-10.8-21.8-1.2 0-2.4 1-3.3 1.8-4.3 4.4-7.5 14.2-7.5 20v4.2c0.1 3.5 0.1 7.8 0.1 9.8v2.1l-34.2 17.8v-6.9c0-1.6-2.2-4.6-4.1-4.6-0.9 0-1.8 0.7-2.2 1.2-1.3 1.2-1.8 2.7-1.8 3.4v11.1l-26.2 13.6v9l26.2-6.2v4.7h8.1v-6.6l35.2-8.4 0.2 4c1 15.4 2.4 27.4 4.2 35.6l0.6 2.3-20 13v5.5l20.2-7.4 4.6 4.2 4.8-4.1 19.8 7.3v-5.5l-20.3-13.2 0.5-2.3c2-8.6 3.6-20.8 4.6-35.4l0.3-4 35.1 8.4v6.6h8.1v-4.7z"/><path class="b" d="m354 166.2h6.7v17.3h-6.7z"/><path class="b" d="m354 192.6h6.7v17.3h-6.7z"/><path class="b" d="m354 218.9h6.7v17.3h-6.7z"/><path class="b" d="m354 245.3h6.7v17.3h-6.7z"/><path class="b" d="m354 271.6h6.7v17.3h-6.7z"/><path class="b" d="m354 298h6.7v17.3h-6.7z"/><path fill-rule="evenodd" class="b" d="m483 348.8h-98.9v-3.3c0-14.8-12-26.9-26.8-26.9-14.7 0-26.8 12.1-26.8 26.9v3.3h-273v-216.1h273v3.3c0 14.8 12.1 26.8 26.8 26.8 14.8 0 26.8-12 26.8-26.8v-3.3h98.9zm-92.3-6.7h85.6v-202.7h-85.6c-1.7 16.9-16 30.1-33.4 30.1-17.3 0-31.6-13.2-33.3-30.1h-259.8v202.7h259.8c1.7-16.9 16-30.2 33.3-30.2 17.4 0 31.7 13.3 33.4 30.2z"/><path class="b" d="m405.8 312.5h50v6.7h-50z"/><path class="b" d="m405.8 298.5h50v6.7h-50z"/><path class="b" d="m405.8 275.4h50v11.7h-50z"/><path class="b" d="m405.8 260.6h50v6.7h-50z"/><path class="b" d="m405.8 248.3h50v3.3h-50z"/><path class="b" d="m405.8 238.8h50v3.3h-50z"/><path class="b" d="m405.8 226h50v6.7h-50z"/><path class="b" d="m405.8 206.1h50v11.8h-50z"/><path class="b" d="m405.8 188h50v6.7h-50z"/><path class="b" d="m405.8 175.7h50v3.3h-50z"/><path class="b" d="m405.8 162.3h50v6.7h-50z"/></svg>