<svg version="1.2" xmlns="http://www.w3.org/2000/svg" viewBox="0 0 800 416" width="800" height="416">
	<title>New Project</title>
	<style>
		.s0 { fill: #32b57a } 
	</style>
	<path id="Layer" fill-rule="evenodd" class="s0" d="m764.5 82.2v257.5h10.8c5.9 0 10.7 4.8 10.7 10.8v21.4c0 6-4.8 10.8-10.7 10.8h-161v-53.7c0-5.9-4.8-10.7-10.7-10.7h-21.5c-5.9 0-10.7 4.8-10.7 10.7v53.7h-160.9c-6 0-10.8-4.8-10.8-10.8v-21.4c0-6 4.8-10.8 10.8-10.8h10.7v-257.5h-10.7c-6 0-10.8-4.8-10.8-10.7v-21.5c0-5.9 4.8-10.7 10.8-10.7h364.8c5.9 0 10.7 4.8 10.7 10.7v21.5c0 5.9-4.8 10.7-10.7 10.7zm-193.2 55.8c0 4.3 4.3 8.6 8.6 8.6h25.8c4.3 0 8.6-4.3 8.6-8.6v-25.7c0-4.3-4.3-8.6-8.6-8.6h-25.8c-4.3 0-8.6 4.3-8.6 8.6zm0 64.3c0 4.3 4.3 8.6 8.6 8.6h25.8c4.3 0 8.6-4.3 8.6-8.6v-25.7c0-4.3-4.3-8.6-8.6-8.6h-25.8c-4.3 0-8.6 4.3-8.6 8.6zm-85.8-64.4c0 4.3 4.3 8.6 8.6 8.6h25.7c4.3 0 8.6-4.3 8.6-8.6v-25.7c0-4.3-4.3-8.6-8.6-8.6h-25.7c-4.3 0-8.6 4.3-8.6 8.6zm42.9 64.3v-25.7c0-4.3-4.3-8.6-8.6-8.6h-25.7c-4.3 0-8.6 4.3-8.6 8.6v25.7c0 4.3 4.3 8.6 8.6 8.6h25.7c4.3 0 8.6-4.3 8.6-8.6zm128.8 94.5c0-35.6-28.9-64.4-64.4-64.4-35.6 0-64.4 28.8-64.4 64.4zm42.9-120.2c0-4.3-4.3-8.6-8.6-8.6h-25.7c-4.3 0-8.6 4.3-8.6 8.6v25.7c0 4.3 4.3 8.6 8.6 8.6h25.7c4.3 0 8.6-4.3 8.6-8.6zm0-64.3c0-4.3-4.3-8.6-8.6-8.6h-25.7c-4.3 0-8.6 4.3-8.6 8.6v25.7c0 4.3 4.3 8.6 8.6 8.6h25.7c4.3 0 8.6-4.3 8.6-8.6z"/>
	<path id="Layer" class="s0" d="m377.4 87.9l-91.1 81.5 24 57.6 14.3-14.4c2.4-4.8 9.6-4.8 14.4 0 4.8 4.8 4.8 12 0 16.8l-21.6 21.5 19.2 45.6 12-12c4.8-4.8 12-4.8 16.8 0 4.8 4.8 4.8 12 0 16.8l-19.2 19.2 4.8 12c9.6 16.7 4.8 40.7-9.6 55.1l-139-139-60 55.1 4.8 83.9-16.7 12-43.2-74.3-74.3-43.2 12-16.8 83.9 4.8 55.1-57.5-139-139c14.4-16.8 35.9-19.2 55.1-9.6l12 4.8 19.2-19.2c4.8-4.8 12-4.8 16.8 0 4.8 2.4 4.8 9.6 0 14.4l-12 12 43.1 19.1 21.6-21.5c4.8-2.4 12-4.8 14.4 0 4.8 4.8 4.8 11.9 0 16.7l-14.4 14.4 57.5 24 83.9-91.1c14.4-14.4 45.6-31.2 64.8-12 19.1 16.8 4.8 50.4-9.6 62.3z"/>
</svg>