<?xml version="1.0" standalone="no"?>
<!DOCTYPE svg PUBLIC "-//W3C//DTD SVG 20010904//EN"
 "http://www.w3.org/TR/2001/REC-SVG-20010904/DTD/svg10.dtd">
<svg version="1.0" xmlns="http://www.w3.org/2000/svg"
 width="206.000000pt" height="285.000000pt" viewBox="0 0 206.000000 285.000000"
 preserveAspectRatio="xMidYMid meet">

<g transform="translate(0.000000,285.000000) scale(0.100000,-0.100000)"
fill="#000000" stroke="none">
<path d="M189 2581 l-29 -29 0 -1141 0 -1140 24 -28 24 -28 817 -3 816 -2 30
29 29 29 0 891 0 890 -57 68 c-58 69 -237 273 -365 416 l-69 77 -595 0 -596 0
-29 -29z m1151 -301 c0 -159 4 -248 12 -264 l11 -26 221 -2 221 -3 0 -485 0
-485 -775 0 -775 0 -3 740 c-1 407 0 746 3 753 3 9 122 12 545 12 l540 0 0
-240z m-682 -1417 c85 -40 132 -127 132 -244 0 -167 -103 -279 -257 -279 -107
0 -189 48 -229 133 -49 107 -40 226 24 318 74 105 203 133 330 72z m547 -2
c93 -41 135 -104 143 -211 10 -141 -54 -243 -180 -287 -52 -18 -188 -28 -252
-19 l-46 7 0 264 0 264 28 4 c15 3 79 4 142 3 94 -2 124 -6 165 -25z m575 -26
l0 -55 -70 0 -70 0 0 -215 0 -215 -65 0 -66 0 3 215 3 215 -72 0 -73 0 0 55 0
55 205 0 205 0 0 -55z"/>
<path d="M1034 1920 c-63 -13 -139 -55 -194 -108 l-48 -47 -39 34 c-21 18 -65
47 -99 62 -68 33 -203 57 -249 45 -27 -8 -22 -11 59 -32 141 -38 236 -99 293
-189 15 -25 31 -45 34 -45 3 0 22 24 42 53 78 115 169 183 282 208 55 12 57
14 30 20 -40 9 -62 8 -111 -1z"/>
<path d="M1499 1616 c-58 -15 -122 -53 -178 -105 -50 -46 -53 -47 -72 -24 -60
72 -276 142 -366 118 -24 -6 -16 -10 59 -31 149 -40 243 -101 305 -199 l27
-44 42 62 c49 73 125 147 181 175 21 11 68 26 103 34 57 11 61 14 35 19 -47
10 -86 9 -136 -5z"/>
<path d="M481 783 c-90 -47 -107 -220 -30 -308 27 -31 37 -35 78 -35 57 0 87
20 112 74 22 50 25 149 5 197 -32 75 -101 106 -165 72z"/>
<path d="M1007 785 c-15 -15 -17 -37 -15 -178 l3 -162 62 0 c47 0 68 5 89 21
52 39 67 68 71 146 4 64 2 77 -19 107 -29 44 -72 69 -130 77 -34 5 -48 2 -61
-11z"/>
</g>
</svg>
